%TF.GenerationSoftware,Altium Limited,Altium Designer,24.5.2 (23)*%
G04 Layer_Color=16711935*
%FSLAX45Y45*%
%MOMM*%
%TF.SameCoordinates,6DBA7EFF-A848-4901-81DE-5B2EC8B0FB51*%
%TF.FilePolarity,Positive*%
%TF.FileFunction,Other,Bottom_Courtyard*%
%TF.Part,Single*%
G01*
G75*
%TA.AperFunction,NonConductor*%
%ADD35C,0.20000*%
D35*
X13574600Y6226300D02*
Y6981300D01*
Y6226300D02*
X14568600D01*
Y6981300D01*
X13574600D02*
X14568600D01*
X14955550Y7700185D02*
X15626050D01*
X14955550D02*
Y8479615D01*
X15626050D01*
Y7700185D02*
Y8479615D01*
X13724500Y8949300D02*
X13834500D01*
X13724500D02*
Y9229300D01*
X13834500D01*
Y8949300D02*
Y9229300D01*
X14994501Y8953200D02*
X15104500D01*
X14994501D02*
Y9233200D01*
X15104500D01*
Y8953200D02*
Y9233200D01*
X16480400Y8953800D02*
X16590401D01*
Y8673800D02*
Y8953800D01*
X16480400Y8673800D02*
X16590401D01*
X16480400D02*
Y8953800D01*
X14359500Y8957100D02*
X14469501D01*
X14359500D02*
Y9237100D01*
X14469501D01*
Y8957100D02*
Y9237100D01*
X15845399Y8953800D02*
X15955400D01*
Y8673800D02*
Y8953800D01*
X15845399Y8673800D02*
X15955400D01*
X15845399D02*
Y8953800D01*
X14321400Y7327600D02*
X14431400D01*
X14321400D02*
Y7607600D01*
X14431400D01*
Y7327600D02*
Y7607600D01*
X14042000Y7340300D02*
X14152000D01*
X14042000D02*
Y7620300D01*
X14152000D01*
Y7340300D02*
Y7620300D01*
X14899500Y7380100D02*
X15199500D01*
Y6920100D02*
Y7380100D01*
X14899500Y6920100D02*
X15199500D01*
X14899500D02*
Y7380100D01*
X15458299D02*
X15758299D01*
Y6920100D02*
Y7380100D01*
X15458299Y6920100D02*
X15758299D01*
X15458299D02*
Y7380100D01*
%TF.MD5,c8e293b96398e061020ffa5d0959c4d2*%
M02*
