%TF.GenerationSoftware,Altium Limited,Altium Designer,24.5.2 (23)*%
G04 Layer_Color=255*
%FSLAX45Y45*%
%MOMM*%
%TF.SameCoordinates,6DBA7EFF-A848-4901-81DE-5B2EC8B0FB51*%
%TF.FilePolarity,Positive*%
%TF.FileFunction,Pads,Top*%
%TF.Part,Single*%
G01*
G75*
%TA.AperFunction,ConnectorPad*%
%ADD10R,2.40000X1.00000*%
%ADD11R,1.00000X2.40000*%
%TA.AperFunction,SMDPad,CuDef*%
%ADD12C,1.50000*%
%TA.AperFunction,ComponentPad*%
%ADD14C,1.55000*%
%ADD15R,1.55000X1.55000*%
G04:AMPARAMS|DCode=16|XSize=1.1mm|YSize=1.7mm|CornerRadius=0.55mm|HoleSize=0mm|Usage=FLASHONLY|Rotation=0.000|XOffset=0mm|YOffset=0mm|HoleType=Round|Shape=RoundedRectangle|*
%AMROUNDEDRECTD16*
21,1,1.10000,0.60000,0,0,0.0*
21,1,0.00000,1.70000,0,0,0.0*
1,1,1.10000,0.00000,-0.30000*
1,1,1.10000,0.00000,-0.30000*
1,1,1.10000,0.00000,0.30000*
1,1,1.10000,0.00000,0.30000*
%
%ADD16ROUNDEDRECTD16*%
%ADD17C,1.52000*%
G04:AMPARAMS|DCode=18|XSize=1.52mm|YSize=1.52mm|CornerRadius=0.38mm|HoleSize=0mm|Usage=FLASHONLY|Rotation=270.000|XOffset=0mm|YOffset=0mm|HoleType=Round|Shape=RoundedRectangle|*
%AMROUNDEDRECTD18*
21,1,1.52000,0.76000,0,0,270.0*
21,1,0.76000,1.52000,0,0,270.0*
1,1,0.76000,-0.38000,-0.38000*
1,1,0.76000,-0.38000,0.38000*
1,1,0.76000,0.38000,0.38000*
1,1,0.76000,0.38000,-0.38000*
%
%ADD18ROUNDEDRECTD18*%
D10*
X13709804Y12573300D02*
D03*
Y12373300D02*
D03*
Y12173301D02*
D03*
Y11973301D02*
D03*
Y11773302D02*
D03*
Y11573302D02*
D03*
Y11373302D02*
D03*
Y11173303D02*
D03*
Y10973303D02*
D03*
X17079800D02*
D03*
Y11173303D02*
D03*
Y11373302D02*
D03*
Y11573302D02*
D03*
Y11773302D02*
D03*
Y11973301D02*
D03*
Y12173301D02*
D03*
Y12373300D02*
D03*
Y12573300D02*
D03*
D11*
X13894804Y10663304D02*
D03*
X14094804D02*
D03*
X14294804D02*
D03*
X14494804D02*
D03*
X14694803D02*
D03*
X14894803D02*
D03*
X15094803D02*
D03*
X15294801D02*
D03*
X15494801D02*
D03*
X15694801D02*
D03*
X15894801D02*
D03*
X16094801D02*
D03*
X16294800D02*
D03*
X16494800D02*
D03*
X16694798D02*
D03*
X16894798D02*
D03*
D12*
X15802802Y12192300D02*
D03*
X16457806Y11196297D02*
D03*
D14*
X16230600Y6680200D02*
D03*
X16738600D02*
D03*
X16484599D02*
D03*
X17017999Y7556500D02*
D03*
X16510001D02*
D03*
X16764000D02*
D03*
X14363699Y8356600D02*
D03*
X14109700D02*
D03*
X13855701D02*
D03*
X14363699Y8102600D02*
D03*
X14109700D02*
D03*
D15*
X16992599Y6680200D02*
D03*
X16256000Y7556500D02*
D03*
X13855701Y8102600D02*
D03*
D16*
X14503600Y6506300D02*
D03*
X13639600D02*
D03*
X14503600Y6886300D02*
D03*
X13639600D02*
D03*
D17*
X17564101Y8445500D02*
D03*
Y8699500D02*
D03*
Y9715500D02*
D03*
Y10223500D02*
D03*
Y10985500D02*
D03*
Y12001500D02*
D03*
Y12255500D02*
D03*
Y11747500D02*
D03*
Y11493500D02*
D03*
Y11239500D02*
D03*
Y10731500D02*
D03*
Y10477500D02*
D03*
Y9969500D02*
D03*
Y9461500D02*
D03*
Y9207500D02*
D03*
Y8953500D02*
D03*
Y8191500D02*
D03*
Y7937500D02*
D03*
Y7683500D02*
D03*
X13246100Y8445500D02*
D03*
Y8699500D02*
D03*
Y9715500D02*
D03*
Y10223500D02*
D03*
Y10985500D02*
D03*
Y12001500D02*
D03*
Y12255500D02*
D03*
Y11747500D02*
D03*
Y11493500D02*
D03*
Y11239500D02*
D03*
Y10731500D02*
D03*
Y10477500D02*
D03*
Y9969500D02*
D03*
Y9461500D02*
D03*
Y9207500D02*
D03*
Y8953500D02*
D03*
Y8191500D02*
D03*
Y7937500D02*
D03*
Y7683500D02*
D03*
D18*
X17564101Y12509500D02*
D03*
X13246100D02*
D03*
%TF.MD5,88e3d3955d64db3097aedea08367c43b*%
M02*
