%TF.GenerationSoftware,Altium Limited,Altium Designer,24.5.2 (23)*%
G04 Layer_Color=32768*
%FSLAX45Y45*%
%MOMM*%
%TF.SameCoordinates,6DBA7EFF-A848-4901-81DE-5B2EC8B0FB51*%
%TF.FilePolarity,Positive*%
%TF.FileFunction,Other,Mechanical_15*%
%TF.Part,Single*%
G01*
G75*
%TA.AperFunction,NonConductor*%
%ADD36C,0.12700*%
%ADD49C,0.05000*%
%ADD51C,0.10000*%
G36*
X13731105Y12634298D02*
Y14209096D01*
X17058501D01*
Y12634298D01*
X17033099D01*
Y14183696D01*
X13756505D01*
Y12634298D01*
X13731105D01*
D02*
G37*
D36*
X15149500Y9734093D02*
G03*
X15174493Y9759112I0J24994D01*
G01*
Y10129088D02*
G03*
X15149500Y10154107I-24994J25D01*
G01*
X14924507Y9759112D02*
G03*
X14949500Y9734093I24994J-25D01*
G01*
Y10154107D02*
G03*
X14924507Y10129088I0J-24994D01*
G01*
X14944496Y9774098D02*
G03*
X14964513Y9754108I19990J0D01*
G01*
Y10134092D02*
G03*
X14944496Y10114102I-25J-19990D01*
G01*
X15154504D02*
G03*
X15134488Y10134092I-19990J0D01*
G01*
Y9754108D02*
G03*
X15154504Y9774098I25J19990D01*
G01*
X15119502Y9789109D02*
G03*
X15139491Y9809099I0J19990D01*
G01*
X14959508D02*
G03*
X14979498Y9789109I19990J0D01*
G01*
Y10099091D02*
G03*
X14959508Y10079101I0J-19990D01*
G01*
X15139491D02*
G03*
X15119502Y10099091I-19990J0D01*
G01*
X14514500Y9737395D02*
G03*
X14539493Y9762414I0J24994D01*
G01*
Y10132390D02*
G03*
X14514500Y10157409I-24994J25D01*
G01*
X14289507Y9762414D02*
G03*
X14314500Y9737395I24994J-25D01*
G01*
Y10157409D02*
G03*
X14289507Y10132390I0J-24994D01*
G01*
X14309496Y9777400D02*
G03*
X14329512Y9757410I19990J0D01*
G01*
Y10137394D02*
G03*
X14309496Y10117404I-25J-19990D01*
G01*
X14519504D02*
G03*
X14499487Y10137394I-19990J0D01*
G01*
Y9757410D02*
G03*
X14519504Y9777400I25J19990D01*
G01*
X14484502Y9792411D02*
G03*
X14504492Y9812401I0J19990D01*
G01*
X14324509D02*
G03*
X14344498Y9792411I19990J0D01*
G01*
Y10102393D02*
G03*
X14324509Y10082403I0J-19990D01*
G01*
X14504492D02*
G03*
X14484502Y10102393I-19990J0D01*
G01*
X13879500Y9734093D02*
G03*
X13904494Y9759112I0J24994D01*
G01*
Y10129088D02*
G03*
X13879500Y10154107I-24994J25D01*
G01*
X13654507Y9759112D02*
G03*
X13679500Y9734093I24994J-25D01*
G01*
Y10154107D02*
G03*
X13654507Y10129088I0J-24994D01*
G01*
X13674496Y9774098D02*
G03*
X13694511Y9754108I19990J0D01*
G01*
Y10134092D02*
G03*
X13674496Y10114102I-25J-19990D01*
G01*
X13884505D02*
G03*
X13864488Y10134092I-19990J0D01*
G01*
Y9754108D02*
G03*
X13884505Y9774098I25J19990D01*
G01*
X13849503Y9789109D02*
G03*
X13869492Y9809099I0J19990D01*
G01*
X13689508D02*
G03*
X13709499Y9789109I19990J0D01*
G01*
Y10099091D02*
G03*
X13689508Y10079101I0J-19990D01*
G01*
X13869492D02*
G03*
X13849503Y10099091I-19990J0D01*
G01*
X14899487Y9709099D02*
X15199512D01*
Y10179101D01*
X14919502D02*
X15199512D01*
X14899487Y10159111D02*
X14919502Y10179101D01*
X14899487Y9709099D02*
Y10159111D01*
X14924507Y9759112D02*
Y10129088D01*
X14949500Y9734093D02*
X15149500D01*
X15174493Y9759112D02*
Y10129088D01*
X14949500Y10154107D02*
X15149500D01*
X14964513Y10134092D02*
X15134488D01*
X14944496Y9774098D02*
Y10114102D01*
X14964513Y9754108D02*
X15134488D01*
X15154504Y9774098D02*
Y10114102D01*
X14959508Y9809099D02*
Y10009099D01*
Y10034092D01*
Y10079101D01*
X14979498Y10099091D02*
X15119502D01*
X15139491Y10034092D02*
Y10079101D01*
Y10009099D02*
Y10034092D01*
Y9809099D02*
Y10009099D01*
X14979498Y9789109D02*
X15119502D01*
X14959508Y10034092D02*
X15139491D01*
X14959508Y10009099D02*
X15139491D01*
X14264488Y9712401D02*
X14564513D01*
Y10182403D01*
X14284503D02*
X14564513D01*
X14264488Y10162413D02*
X14284503Y10182403D01*
X14264488Y9712401D02*
Y10162413D01*
X14289507Y9762414D02*
Y10132390D01*
X14314500Y9737395D02*
X14514500D01*
X14539493Y9762414D02*
Y10132390D01*
X14314500Y10157409D02*
X14514500D01*
X14329512Y10137394D02*
X14499487D01*
X14309496Y9777400D02*
Y10117404D01*
X14329512Y9757410D02*
X14499487D01*
X14519504Y9777400D02*
Y10117404D01*
X14324509Y9812401D02*
Y10012401D01*
Y10037394D01*
Y10082403D01*
X14344498Y10102393D02*
X14484502D01*
X14504492Y10037394D02*
Y10082403D01*
Y10012401D02*
Y10037394D01*
Y9812401D02*
Y10012401D01*
X14344498Y9792411D02*
X14484502D01*
X14324509Y10037394D02*
X14504492D01*
X14324509Y10012401D02*
X14504492D01*
X13629488Y9709099D02*
X13929512D01*
Y10179101D01*
X13649503D02*
X13929512D01*
X13629488Y10159111D02*
X13649503Y10179101D01*
X13629488Y9709099D02*
Y10159111D01*
X13654507Y9759112D02*
Y10129088D01*
X13679500Y9734093D02*
X13879500D01*
X13904494Y9759112D02*
Y10129088D01*
X13679500Y10154107D02*
X13879500D01*
X13694511Y10134092D02*
X13864488D01*
X13674496Y9774098D02*
Y10114102D01*
X13694511Y9754108D02*
X13864488D01*
X13884505Y9774098D02*
Y10114102D01*
X13689508Y9809099D02*
Y10009099D01*
Y10034092D01*
Y10079101D01*
X13709499Y10099091D02*
X13849503D01*
X13869492Y10034092D02*
Y10079101D01*
Y10009099D02*
Y10034092D01*
Y9809099D02*
Y10009099D01*
X13709499Y9789109D02*
X13849503D01*
X13689508Y10034092D02*
X13869492D01*
X13689508Y10009099D02*
X13869492D01*
D49*
X16062100Y6530700D02*
Y6829700D01*
X17161099D01*
Y6530700D02*
Y6829700D01*
X16062100Y6530700D02*
X17161099D01*
X17186501Y7407000D02*
Y7706000D01*
X16087500Y7407000D02*
X17186501D01*
X16087500D02*
Y7706000D01*
X17186501D01*
X13687199Y8506100D02*
X14532201D01*
X13687199Y7953100D02*
Y8506100D01*
Y7953100D02*
X14532201D01*
Y8506100D01*
X13664101Y7728424D02*
X13844099D01*
X13664101Y7308425D02*
X13844099D01*
X13664108Y7308400D02*
Y7728400D01*
X13844109Y7308400D02*
Y7728400D01*
D51*
X13754108Y7468424D02*
Y7568424D01*
X13704108Y7518424D02*
X13804108D01*
%TF.MD5,0e3a890c6b6af07296a782907fc0e92c*%
M02*
