%TF.GenerationSoftware,Altium Limited,Altium Designer,24.5.2 (23)*%
G04 Layer_Color=32768*
%FSLAX45Y45*%
%MOMM*%
%TF.SameCoordinates,6DBA7EFF-A848-4901-81DE-5B2EC8B0FB51*%
%TF.FilePolarity,Positive*%
%TF.FileFunction,Other,Bottom_3D_Body*%
%TF.Part,Single*%
G01*
G75*
%TA.AperFunction,NonConductor*%
%ADD35C,0.20000*%
%ADD51C,0.10000*%
D35*
X13614600Y6236300D02*
Y6946300D01*
Y6236300D02*
X14528600D01*
Y6946300D01*
X13614600D02*
X14528600D01*
X14965550Y7914650D02*
X15616051D01*
X14965550D02*
Y8265150D01*
X15616051D01*
Y7914650D02*
Y8265150D01*
X13734500Y9004300D02*
X13824500D01*
X13734500D02*
Y9174300D01*
X13824500D01*
Y9004300D02*
Y9174300D01*
X15004500Y9008200D02*
X15094501D01*
X15004500D02*
Y9178200D01*
X15094501D01*
Y9008200D02*
Y9178200D01*
X16490401Y8898800D02*
X16580400D01*
Y8728800D02*
Y8898800D01*
X16490401Y8728800D02*
X16580400D01*
X16490401D02*
Y8898800D01*
X14369501Y9012100D02*
X14459500D01*
X14369501D02*
Y9182100D01*
X14459500D01*
Y9012100D02*
Y9182100D01*
X15855400Y8898800D02*
X15945399D01*
Y8728800D02*
Y8898800D01*
X15855400Y8728800D02*
X15945399D01*
X15855400D02*
Y8898800D01*
X14331400Y7382600D02*
X14421400D01*
X14331400D02*
Y7552600D01*
X14421400D01*
Y7382600D02*
Y7552600D01*
X14052000Y7395300D02*
X14142000D01*
X14052000D02*
Y7565300D01*
X14142000D01*
Y7395300D02*
Y7565300D01*
X14909500Y7330100D02*
X15189500D01*
Y6970100D02*
Y7330100D01*
X14909500Y6970100D02*
X15189500D01*
X14909500D02*
Y7330100D01*
X15468300D02*
X15748300D01*
Y6970100D02*
Y7330100D01*
X15468300Y6970100D02*
X15748300D01*
X15468300D02*
Y7330100D01*
D51*
X16084599Y6553200D02*
Y6807200D01*
X17138600D01*
Y6553200D02*
Y6807200D01*
X16084599Y6553200D02*
X17138600D01*
X17164000Y7429500D02*
Y7683500D01*
X16110001Y7429500D02*
X17164000D01*
X16110001D02*
Y7683500D01*
X17164000D01*
X13709700Y8483600D02*
X14509700D01*
X13709700Y7975600D02*
Y8483600D01*
Y7975600D02*
X14509700D01*
Y8483600D01*
X13834100Y7358400D02*
Y7678400D01*
X13674100Y7358400D02*
Y7678400D01*
X13834100D01*
X13674100Y7358400D02*
X13834100D01*
%TF.MD5,6c193447db66702f887c8153b074fea6*%
M02*
