%TF.GenerationSoftware,Altium Limited,Altium Designer,24.5.2 (23)*%
G04 Layer_Color=8388736*
%FSLAX45Y45*%
%MOMM*%
%TF.SameCoordinates,6DBA7EFF-A848-4901-81DE-5B2EC8B0FB51*%
%TF.FilePolarity,Negative*%
%TF.FileFunction,Soldermask,Top*%
%TF.Part,Single*%
G01*
G75*
%TA.AperFunction,ComponentPad*%
G04:AMPARAMS|DCode=16|XSize=1.1mm|YSize=1.7mm|CornerRadius=0.55mm|HoleSize=0mm|Usage=FLASHONLY|Rotation=0.000|XOffset=0mm|YOffset=0mm|HoleType=Round|Shape=RoundedRectangle|*
%AMROUNDEDRECTD16*
21,1,1.10000,0.60000,0,0,0.0*
21,1,0.00000,1.70000,0,0,0.0*
1,1,1.10000,0.00000,-0.30000*
1,1,1.10000,0.00000,-0.30000*
1,1,1.10000,0.00000,0.30000*
1,1,1.10000,0.00000,0.30000*
%
%ADD16ROUNDEDRECTD16*%
%TA.AperFunction,ConnectorPad*%
%ADD37R,2.50160X1.10160*%
%ADD38R,1.10160X2.50160*%
%TA.AperFunction,SMDPad,CuDef*%
%ADD39C,1.60160*%
%TA.AperFunction,ComponentPad*%
%ADD40C,1.75320*%
%ADD41R,1.75320X1.75320*%
%ADD42C,1.72320*%
G04:AMPARAMS|DCode=43|XSize=1.7232mm|YSize=1.7232mm|CornerRadius=0.4816mm|HoleSize=0mm|Usage=FLASHONLY|Rotation=270.000|XOffset=0mm|YOffset=0mm|HoleType=Round|Shape=RoundedRectangle|*
%AMROUNDEDRECTD43*
21,1,1.72320,0.76000,0,0,270.0*
21,1,0.76000,1.72320,0,0,270.0*
1,1,0.96320,-0.38000,-0.38000*
1,1,0.96320,-0.38000,0.38000*
1,1,0.96320,0.38000,0.38000*
1,1,0.96320,0.38000,-0.38000*
%
%ADD43ROUNDEDRECTD43*%
%TA.AperFunction,ViaPad*%
%ADD44C,1.47320*%
D16*
X14503600Y6506300D02*
D03*
X13639600D02*
D03*
X14503600Y6886300D02*
D03*
X13639600D02*
D03*
D37*
X13709804Y12573300D02*
D03*
Y12373300D02*
D03*
Y12173301D02*
D03*
Y11973301D02*
D03*
Y11773302D02*
D03*
Y11573302D02*
D03*
Y11373302D02*
D03*
Y11173303D02*
D03*
Y10973303D02*
D03*
X17079800D02*
D03*
Y11173303D02*
D03*
Y11373302D02*
D03*
Y11573302D02*
D03*
Y11773302D02*
D03*
Y11973301D02*
D03*
Y12173301D02*
D03*
Y12373300D02*
D03*
Y12573300D02*
D03*
D38*
X13894804Y10663304D02*
D03*
X14094804D02*
D03*
X14294804D02*
D03*
X14494804D02*
D03*
X14694803D02*
D03*
X14894803D02*
D03*
X15094803D02*
D03*
X15294801D02*
D03*
X15494801D02*
D03*
X15694801D02*
D03*
X15894801D02*
D03*
X16094801D02*
D03*
X16294800D02*
D03*
X16494800D02*
D03*
X16694798D02*
D03*
X16894798D02*
D03*
D39*
X15802802Y12192300D02*
D03*
X16457806Y11196297D02*
D03*
D40*
X16230600Y6680200D02*
D03*
X16738600D02*
D03*
X16484599D02*
D03*
X17017999Y7556500D02*
D03*
X16510001D02*
D03*
X16764000D02*
D03*
X14363699Y8356600D02*
D03*
X14109700D02*
D03*
X13855701D02*
D03*
X14363699Y8102600D02*
D03*
X14109700D02*
D03*
D41*
X16992599Y6680200D02*
D03*
X16256000Y7556500D02*
D03*
X13855701Y8102600D02*
D03*
D42*
X17564101Y8445500D02*
D03*
Y8699500D02*
D03*
Y9715500D02*
D03*
Y10223500D02*
D03*
Y10985500D02*
D03*
Y12001500D02*
D03*
Y12255500D02*
D03*
Y11747500D02*
D03*
Y11493500D02*
D03*
Y11239500D02*
D03*
Y10731500D02*
D03*
Y10477500D02*
D03*
Y9969500D02*
D03*
Y9461500D02*
D03*
Y9207500D02*
D03*
Y8953500D02*
D03*
Y8191500D02*
D03*
Y7937500D02*
D03*
Y7683500D02*
D03*
X13246100Y8445500D02*
D03*
Y8699500D02*
D03*
Y9715500D02*
D03*
Y10223500D02*
D03*
Y10985500D02*
D03*
Y12001500D02*
D03*
Y12255500D02*
D03*
Y11747500D02*
D03*
Y11493500D02*
D03*
Y11239500D02*
D03*
Y10731500D02*
D03*
Y10477500D02*
D03*
Y9969500D02*
D03*
Y9461500D02*
D03*
Y9207500D02*
D03*
Y8953500D02*
D03*
Y8191500D02*
D03*
Y7937500D02*
D03*
Y7683500D02*
D03*
D43*
X17564101Y12509500D02*
D03*
X13246100D02*
D03*
D44*
X15417799Y7569200D02*
D03*
X13703300Y8458200D02*
D03*
X14592300Y8280400D02*
D03*
X17716499Y10414000D02*
D03*
X15113000Y8128000D02*
D03*
X14820900Y7721600D02*
D03*
X17426300Y12129450D02*
D03*
X17168500Y12192000D02*
D03*
X15646400Y9601200D02*
D03*
X15951199Y9829800D02*
D03*
X15519400Y11645900D02*
D03*
X13677901Y10490200D02*
D03*
X13017500Y12217400D02*
D03*
X14541499Y7594600D02*
D03*
X15697200Y8775700D02*
D03*
X16243300Y8928100D02*
D03*
X16128999Y8686800D02*
D03*
X16459200Y11468100D02*
D03*
X16802100Y10312400D02*
D03*
X18122900Y11734800D02*
D03*
X17310100Y6565900D02*
D03*
X17043401Y10464800D02*
D03*
X16294099Y10401300D02*
D03*
X16116299D02*
D03*
X16535400Y10388600D02*
D03*
X16978000Y8128000D02*
D03*
X16941800Y8826500D02*
D03*
X17056100Y7785100D02*
D03*
X16141701Y9601200D02*
D03*
X15189200Y9042400D02*
D03*
X14820900Y8140700D02*
D03*
X14643100Y9144000D02*
D03*
X13538200Y8559800D02*
D03*
X13474699Y8737600D02*
D03*
X13525500Y8991600D02*
D03*
X13512801Y9232900D02*
D03*
X13487399Y9474200D02*
D03*
X13474699Y9766300D02*
D03*
X13462000Y9982200D02*
D03*
X15849600Y10439400D02*
D03*
X17322800Y12369800D02*
D03*
X17426300Y11887200D02*
D03*
X17293800Y11328400D02*
D03*
X17451700Y11099548D02*
D03*
X17221201Y10610850D02*
D03*
X17297400Y10807700D02*
D03*
X17335500Y12573000D02*
D03*
X13525500Y10769600D02*
D03*
X13474699Y10985500D02*
D03*
Y11214100D02*
D03*
Y11480800D02*
D03*
X13462000Y11747500D02*
D03*
X13474699Y11963400D02*
D03*
Y12166600D02*
D03*
X13462000Y12369800D02*
D03*
Y12573000D02*
D03*
%TF.MD5,9d7aafa607a9ff0b2eb72739cb9be9dc*%
M02*
