%TF.GenerationSoftware,Altium Limited,Altium Designer,24.5.2 (23)*%
G04 Layer_Color=32896*
%FSLAX45Y45*%
%MOMM*%
%TF.SameCoordinates,6DBA7EFF-A848-4901-81DE-5B2EC8B0FB51*%
%TF.FilePolarity,Positive*%
%TF.FileFunction,Other,Bottom_Component_Center*%
%TF.Part,Single*%
G01*
G75*
%TA.AperFunction,NonConductor*%
%ADD51C,0.10000*%
D51*
X14071600Y6541300D02*
Y6641300D01*
X14021600Y6591300D02*
X14121600D01*
X15240800Y8089900D02*
X15340800D01*
X15290800Y8039900D02*
Y8139900D01*
X13729500Y9089300D02*
X13829500D01*
X13779500Y9039300D02*
Y9139300D01*
X14999500Y9093200D02*
X15099500D01*
X15049500Y9043200D02*
Y9143200D01*
X16485400Y8813800D02*
X16585400D01*
X16535400Y8763800D02*
Y8863800D01*
X14364500Y9097100D02*
X14464500D01*
X14414500Y9047100D02*
Y9147100D01*
X15850400Y8813800D02*
X15950400D01*
X15900400Y8763800D02*
Y8863800D01*
X14326401Y7467600D02*
X14426401D01*
X14376401Y7417600D02*
Y7517600D01*
X14047000Y7480300D02*
X14147000D01*
X14097000Y7430300D02*
Y7530300D01*
X14999500Y7150100D02*
X15099500D01*
X15049500Y7100100D02*
Y7200100D01*
X15558299Y7150100D02*
X15658299D01*
X15608299Y7100100D02*
Y7200100D01*
%TF.MD5,3ba2732ab5ed972c32cf4edd035888c2*%
M02*
