%TF.GenerationSoftware,Altium Limited,Altium Designer,24.5.2 (23)*%
G04 Layer_Color=128*
%FSLAX45Y45*%
%MOMM*%
%TF.SameCoordinates,6DBA7EFF-A848-4901-81DE-5B2EC8B0FB51*%
%TF.FilePolarity,Positive*%
%TF.FileFunction,Drillmap*%
%TF.Part,Single*%
G01*
G75*
%TA.AperFunction,NonConductor*%
%ADD36C,0.12700*%
D36*
X16179601Y6680200D02*
X16281599D01*
X16230600Y6629200D02*
Y6731200D01*
X16941600Y6680200D02*
X17043600D01*
X16992599Y6629200D02*
Y6731200D01*
X16687601Y6680200D02*
X16789600D01*
X16738600Y6629200D02*
Y6731200D01*
X16433600Y6680200D02*
X16535600D01*
X16484599Y6629200D02*
Y6731200D01*
X16967000Y7556500D02*
X17069000D01*
X17017999Y7505500D02*
Y7607500D01*
X16205000Y7556500D02*
X16307001D01*
X16256000Y7505500D02*
Y7607500D01*
X16459000Y7556500D02*
X16561000D01*
X16510001Y7505500D02*
Y7607500D01*
X16713000Y7556500D02*
X16814999D01*
X16764000Y7505500D02*
Y7607500D01*
X14312700Y8356600D02*
X14414700D01*
X14363699Y8305600D02*
Y8407600D01*
X14058701Y8356600D02*
X14160699D01*
X14109700Y8305600D02*
Y8407600D01*
X13804700Y8356600D02*
X13906700D01*
X13855701Y8305600D02*
Y8407600D01*
X14312700Y8102600D02*
X14414700D01*
X14363699Y8051600D02*
Y8153600D01*
X14058701Y8102600D02*
X14160699D01*
X14109700Y8051600D02*
Y8153600D01*
X13804700Y8102600D02*
X13906700D01*
X13855701Y8051600D02*
Y8153600D01*
X14443600Y6506300D02*
X14563600D01*
X14503600Y6446300D02*
Y6566300D01*
X13579601Y6506300D02*
X13699600D01*
X13639600Y6446300D02*
Y6566300D01*
X14443600Y6886300D02*
X14563600D01*
X14503600Y6826300D02*
Y6946300D01*
X13579601Y6886300D02*
X13699600D01*
X13639600Y6826300D02*
Y6946300D01*
X17513100Y8445500D02*
X17615100D01*
X17564101Y8394500D02*
Y8496500D01*
X17513100Y8699500D02*
X17615100D01*
X17564101Y8648500D02*
Y8750500D01*
X17513100Y9715500D02*
X17615100D01*
X17564101Y9664500D02*
Y9766500D01*
X17513100Y10223500D02*
X17615100D01*
X17564101Y10172500D02*
Y10274500D01*
X17513100Y10985500D02*
X17615100D01*
X17564101Y10934500D02*
Y11036500D01*
X17513100Y12001500D02*
X17615100D01*
X17564101Y11950500D02*
Y12052500D01*
X17513100Y12509500D02*
X17615100D01*
X17564101Y12458500D02*
Y12560500D01*
X17513100Y12255500D02*
X17615100D01*
X17564101Y12204500D02*
Y12306500D01*
X17513100Y11747500D02*
X17615100D01*
X17564101Y11696500D02*
Y11798500D01*
X17513100Y11493500D02*
X17615100D01*
X17564101Y11442500D02*
Y11544500D01*
X17513100Y11239500D02*
X17615100D01*
X17564101Y11188500D02*
Y11290500D01*
X17513100Y10731500D02*
X17615100D01*
X17564101Y10680500D02*
Y10782500D01*
X17513100Y10477500D02*
X17615100D01*
X17564101Y10426500D02*
Y10528500D01*
X17513100Y9969500D02*
X17615100D01*
X17564101Y9918500D02*
Y10020500D01*
X17513100Y9461500D02*
X17615100D01*
X17564101Y9410500D02*
Y9512500D01*
X17513100Y9207500D02*
X17615100D01*
X17564101Y9156500D02*
Y9258500D01*
X17513100Y8953500D02*
X17615100D01*
X17564101Y8902500D02*
Y9004500D01*
X17513100Y8191500D02*
X17615100D01*
X17564101Y8140500D02*
Y8242500D01*
X17513100Y7937500D02*
X17615100D01*
X17564101Y7886500D02*
Y7988500D01*
X17513100Y7683500D02*
X17615100D01*
X17564101Y7632500D02*
Y7734500D01*
X13195100Y8445500D02*
X13297099D01*
X13246100Y8394500D02*
Y8496500D01*
X13195100Y8699500D02*
X13297099D01*
X13246100Y8648500D02*
Y8750500D01*
X13195100Y9715500D02*
X13297099D01*
X13246100Y9664500D02*
Y9766500D01*
X13195100Y10223500D02*
X13297099D01*
X13246100Y10172500D02*
Y10274500D01*
X13195100Y10985500D02*
X13297099D01*
X13246100Y10934500D02*
Y11036500D01*
X13195100Y12001500D02*
X13297099D01*
X13246100Y11950500D02*
Y12052500D01*
X13195100Y12509500D02*
X13297099D01*
X13246100Y12458500D02*
Y12560500D01*
X13195100Y12255500D02*
X13297099D01*
X13246100Y12204500D02*
Y12306500D01*
X13195100Y11747500D02*
X13297099D01*
X13246100Y11696500D02*
Y11798500D01*
X13195100Y11493500D02*
X13297099D01*
X13246100Y11442500D02*
Y11544500D01*
X13195100Y11239500D02*
X13297099D01*
X13246100Y11188500D02*
Y11290500D01*
X13195100Y10731500D02*
X13297099D01*
X13246100Y10680500D02*
Y10782500D01*
X13195100Y10477500D02*
X13297099D01*
X13246100Y10426500D02*
Y10528500D01*
X13195100Y9969500D02*
X13297099D01*
X13246100Y9918500D02*
Y10020500D01*
X13195100Y9461500D02*
X13297099D01*
X13246100Y9410500D02*
Y9512500D01*
X13195100Y9207500D02*
X13297099D01*
X13246100Y9156500D02*
Y9258500D01*
X13195100Y8953500D02*
X13297099D01*
X13246100Y8902500D02*
Y9004500D01*
X13195100Y8191500D02*
X13297099D01*
X13246100Y8140500D02*
Y8242500D01*
X13195100Y7937500D02*
X13297099D01*
X13246100Y7886500D02*
Y7988500D01*
X13195100Y7683500D02*
X13297099D01*
X13246100Y7632500D02*
Y7734500D01*
X15382240Y7569200D02*
X15453360D01*
X15417799Y7533640D02*
Y7604760D01*
X13667740Y8458200D02*
X13738860D01*
X13703300Y8422640D02*
Y8493760D01*
X14556740Y8280400D02*
X14627859D01*
X14592300Y8244840D02*
Y8315960D01*
X17680940Y10414000D02*
X17752060D01*
X17716499Y10378440D02*
Y10449560D01*
X15077440Y8128000D02*
X15148560D01*
X15113000Y8092440D02*
Y8163560D01*
X14785339Y7721600D02*
X14856461D01*
X14820900Y7686040D02*
Y7757160D01*
X17390739Y12129450D02*
X17461861D01*
X17426300Y12093890D02*
Y12165010D01*
X17132941Y12192000D02*
X17204060D01*
X17168500Y12156440D02*
Y12227560D01*
X15610840Y9601200D02*
X15681960D01*
X15646400Y9565640D02*
Y9636760D01*
X15915640Y9829800D02*
X15986760D01*
X15951199Y9794240D02*
Y9865360D01*
X15483839Y11645900D02*
X15554961D01*
X15519400Y11610340D02*
Y11681460D01*
X13642340Y10490200D02*
X13713460D01*
X13677901Y10454640D02*
Y10525760D01*
X12981940Y12217400D02*
X13053059D01*
X13017500Y12181840D02*
Y12252960D01*
X14505940Y7594600D02*
X14577060D01*
X14541499Y7559040D02*
Y7630160D01*
X15661639Y8775700D02*
X15732761D01*
X15697200Y8740140D02*
Y8811260D01*
X16207739Y8928100D02*
X16278860D01*
X16243300Y8892540D02*
Y8963660D01*
X16093440Y8686800D02*
X16164560D01*
X16128999Y8651240D02*
Y8722360D01*
X16423640Y11468100D02*
X16494760D01*
X16459200Y11432540D02*
Y11503660D01*
X16766541Y10312400D02*
X16837660D01*
X16802100Y10276840D02*
Y10347960D01*
X18087340Y11734800D02*
X18158459D01*
X18122900Y11699240D02*
Y11770360D01*
X17274541Y6565900D02*
X17345660D01*
X17310100Y6530340D02*
Y6601460D01*
X17007840Y10464800D02*
X17078960D01*
X17043401Y10429240D02*
Y10500360D01*
X16258540Y10401300D02*
X16329660D01*
X16294099Y10365740D02*
Y10436860D01*
X16080740Y10401300D02*
X16151860D01*
X16116299Y10365740D02*
Y10436860D01*
X16499840Y10388600D02*
X16570959D01*
X16535400Y10353040D02*
Y10424160D01*
X16942439Y8128000D02*
X17013560D01*
X16978000Y8092440D02*
Y8163560D01*
X16906239Y8826500D02*
X16977361D01*
X16941800Y8790940D02*
Y8862060D01*
X17020540Y7785100D02*
X17091660D01*
X17056100Y7749540D02*
Y7820660D01*
X16106140Y9601200D02*
X16177260D01*
X16141701Y9565640D02*
Y9636760D01*
X15153641Y9042400D02*
X15224760D01*
X15189200Y9006840D02*
Y9077960D01*
X14785339Y8140700D02*
X14856461D01*
X14820900Y8105140D02*
Y8176260D01*
X14607539Y9144000D02*
X14678661D01*
X14643100Y9108440D02*
Y9179560D01*
X13502640Y8559800D02*
X13573759D01*
X13538200Y8524240D02*
Y8595360D01*
X13439140Y8737600D02*
X13510260D01*
X13474699Y8702040D02*
Y8773160D01*
X13489940Y8991600D02*
X13561060D01*
X13525500Y8956040D02*
Y9027160D01*
X13477240Y9232900D02*
X13548360D01*
X13512801Y9197340D02*
Y9268460D01*
X13451840Y9474200D02*
X13522960D01*
X13487399Y9438640D02*
Y9509760D01*
X13439140Y9766300D02*
X13510260D01*
X13474699Y9730740D02*
Y9801860D01*
X13426440Y9982200D02*
X13497560D01*
X13462000Y9946640D02*
Y10017760D01*
X15814040Y10439400D02*
X15885159D01*
X15849600Y10403840D02*
Y10474960D01*
X17287241Y12369800D02*
X17358360D01*
X17322800Y12334240D02*
Y12405360D01*
X17390739Y11887200D02*
X17461861D01*
X17426300Y11851640D02*
Y11922760D01*
X17258240Y11328400D02*
X17329359D01*
X17293800Y11292840D02*
Y11363960D01*
X17416141Y11099548D02*
X17487260D01*
X17451700Y11063988D02*
Y11135108D01*
X17185640Y10610850D02*
X17256760D01*
X17221201Y10575290D02*
Y10646410D01*
X17261839Y10807700D02*
X17332961D01*
X17297400Y10772140D02*
Y10843260D01*
X17299940Y12573000D02*
X17371060D01*
X17335500Y12537440D02*
Y12608560D01*
X13489940Y10769600D02*
X13561060D01*
X13525500Y10734040D02*
Y10805160D01*
X13439140Y10985500D02*
X13510260D01*
X13474699Y10949940D02*
Y11021060D01*
X13439140Y11214100D02*
X13510260D01*
X13474699Y11178540D02*
Y11249660D01*
X13439140Y11480800D02*
X13510260D01*
X13474699Y11445240D02*
Y11516360D01*
X13426440Y11747500D02*
X13497560D01*
X13462000Y11711940D02*
Y11783060D01*
X13439140Y11963400D02*
X13510260D01*
X13474699Y11927840D02*
Y11998960D01*
X13439140Y12166600D02*
X13510260D01*
X13474699Y12131040D02*
Y12202160D01*
X13426440Y12369800D02*
X13497560D01*
X13462000Y12334240D02*
Y12405360D01*
X13426440Y12573000D02*
X13497560D01*
X13462000Y12537440D02*
Y12608560D01*
%TF.MD5,514f5cddb82f44d2d1672c4ba01477ee*%
M02*
