%TF.GenerationSoftware,Altium Limited,Altium Designer,24.5.2 (23)*%
G04 Layer_Physical_Order=1*
G04 Layer_Color=255*
%FSLAX45Y45*%
%MOMM*%
%TF.SameCoordinates,6DBA7EFF-A848-4901-81DE-5B2EC8B0FB51*%
%TF.FilePolarity,Positive*%
%TF.FileFunction,Copper,L1,Top,Signal*%
%TF.Part,Single*%
G01*
G75*
%TA.AperFunction,ConnectorPad*%
%ADD10R,2.40000X1.00000*%
%ADD11R,1.00000X2.40000*%
%TA.AperFunction,SMDPad,CuDef*%
%ADD12C,1.50000*%
%TA.AperFunction,Conductor*%
%ADD13C,0.50800*%
%TA.AperFunction,ComponentPad*%
%ADD14C,1.55000*%
%ADD15R,1.55000X1.55000*%
G04:AMPARAMS|DCode=16|XSize=1.1mm|YSize=1.7mm|CornerRadius=0.55mm|HoleSize=0mm|Usage=FLASHONLY|Rotation=0.000|XOffset=0mm|YOffset=0mm|HoleType=Round|Shape=RoundedRectangle|*
%AMROUNDEDRECTD16*
21,1,1.10000,0.60000,0,0,0.0*
21,1,0.00000,1.70000,0,0,0.0*
1,1,1.10000,0.00000,-0.30000*
1,1,1.10000,0.00000,-0.30000*
1,1,1.10000,0.00000,0.30000*
1,1,1.10000,0.00000,0.30000*
%
%ADD16ROUNDEDRECTD16*%
%ADD17C,1.52000*%
G04:AMPARAMS|DCode=18|XSize=1.52mm|YSize=1.52mm|CornerRadius=0.38mm|HoleSize=0mm|Usage=FLASHONLY|Rotation=270.000|XOffset=0mm|YOffset=0mm|HoleType=Round|Shape=RoundedRectangle|*
%AMROUNDEDRECTD18*
21,1,1.52000,0.76000,0,0,270.0*
21,1,0.76000,1.52000,0,0,270.0*
1,1,0.76000,-0.38000,-0.38000*
1,1,0.76000,-0.38000,0.38000*
1,1,0.76000,0.38000,0.38000*
1,1,0.76000,0.38000,-0.38000*
%
%ADD18ROUNDEDRECTD18*%
%TA.AperFunction,ViaPad*%
%ADD19C,1.27000*%
G36*
X16889799Y12599332D02*
X16621783Y12331315D01*
X16591539Y12258299D01*
Y11576821D01*
X16554584Y11561514D01*
X16514497Y11601600D01*
X16403902D01*
X16325700Y11523398D01*
Y11412802D01*
X16355243Y11383259D01*
Y11298794D01*
X16312807Y11256358D01*
Y11136237D01*
X16397746Y11051297D01*
X16517868D01*
X16554584Y11088013D01*
X16591539Y11072706D01*
Y10853304D01*
X14046405D01*
Y10884904D01*
X13899805D01*
Y11053303D01*
Y11253302D01*
Y11453302D01*
Y11653302D01*
Y11853301D01*
Y12053301D01*
Y12253300D01*
Y12421700D01*
X13931404D01*
Y12560600D01*
X13709804D01*
Y12586000D01*
X13931404D01*
Y12687300D01*
X16889799D01*
Y12599332D01*
D02*
G37*
G36*
X13470203Y10636100D02*
X13533745D01*
X13550313Y10596100D01*
X13512801Y10558587D01*
Y10502900D01*
X13677901D01*
Y10477500D01*
X13512801D01*
Y10421813D01*
X13609512Y10325100D01*
X13628307D01*
X13643613Y10288145D01*
X13481664Y10126196D01*
X13436942Y10129637D01*
X13423700Y10149936D01*
Y10210800D01*
X13246100D01*
Y10236200D01*
X13423700D01*
Y10297064D01*
X13347919Y10372844D01*
X13392101Y10417025D01*
Y10537975D01*
X13325575Y10604500D01*
X13392101Y10671025D01*
X13422630Y10683671D01*
X13470203Y10636100D01*
D02*
G37*
G36*
X15982800Y10346002D02*
X16061002Y10267800D01*
X16171597D01*
X16205200Y10301402D01*
X16238802Y10267800D01*
X16349397D01*
X16408400Y10326802D01*
X16459131Y10276071D01*
X16098773Y9915713D01*
X16019588Y9994900D01*
X15963901D01*
Y9829800D01*
X15938499D01*
Y9994900D01*
X15882812D01*
X15835056Y9947141D01*
X15798062Y9966717D01*
Y10305900D01*
X15904898D01*
X15956071Y10357074D01*
X15982800Y10346002D01*
D02*
G37*
G36*
X16988103Y10331300D02*
X17098697D01*
X17117940Y10323329D01*
Y8978115D01*
X17148184Y8905099D01*
X17168739Y8884543D01*
Y7958210D01*
X17131784Y7942902D01*
X17124487Y7950200D01*
X17068800D01*
Y7785100D01*
X17056100D01*
Y7772400D01*
X16891000D01*
Y7716713D01*
X16907964Y7699749D01*
X16868655Y7660441D01*
X16825098Y7704000D01*
X16702904D01*
X16637000Y7638097D01*
X16571097Y7704000D01*
X16453281D01*
X16435693Y7718382D01*
X16434212Y7732198D01*
X16442311Y7751690D01*
X16579849D01*
X16652866Y7781934D01*
X16882973Y8012040D01*
X16905164D01*
X16922704Y7994500D01*
X17033298D01*
X17111501Y8072702D01*
Y8183298D01*
X17033298Y8261500D01*
X16922704D01*
X16879762Y8218560D01*
X16840199D01*
X16767184Y8188316D01*
X16537077Y7958210D01*
X16389349D01*
X16316335Y7927966D01*
X16208385Y7820016D01*
X16178140Y7747000D01*
Y7704000D01*
X16108501D01*
Y7704000D01*
X16095016Y7698415D01*
X16067160Y7726272D01*
Y8301128D01*
X16257175Y8491142D01*
X16287419Y8564158D01*
Y8606242D01*
X16262500Y8666400D01*
Y8742098D01*
X16246953Y8757645D01*
X16262260Y8794600D01*
X16298598D01*
X16376801Y8872802D01*
Y8983398D01*
X16298598Y9061600D01*
X16188002D01*
X16157764Y9031360D01*
X15558746D01*
X15543440Y9068316D01*
X15992268Y9517145D01*
X16073312Y9436100D01*
X16128999D01*
Y9601200D01*
X16141701D01*
Y9613900D01*
X16306799D01*
Y9669587D01*
X16225755Y9750631D01*
X16646164Y10171040D01*
X16814799D01*
X16833775Y10178900D01*
X16857397D01*
X16874100Y10195603D01*
X16887816Y10201284D01*
X16893497Y10215000D01*
X16935600Y10257102D01*
Y10327234D01*
X16975600Y10343802D01*
X16988103Y10331300D01*
D02*
G37*
G36*
X15125160Y8773284D02*
X14729031Y8377155D01*
X14660687Y8445500D01*
X14605000D01*
Y8280400D01*
X14579601D01*
Y8445500D01*
X14528085D01*
X14437886Y8535700D01*
X14433272Y8546839D01*
X14549475Y8663043D01*
X14614516Y8689984D01*
X14734772Y8810240D01*
X15109853D01*
X15125160Y8773284D01*
D02*
G37*
G36*
X15560307Y8784840D02*
X15174640Y8399172D01*
X15144395Y8326156D01*
Y8293100D01*
X15125700D01*
Y8128000D01*
X15100301D01*
Y8293100D01*
X15044614D01*
X14950957Y8199442D01*
X14897169Y8253229D01*
X15468781Y8824840D01*
X15555510D01*
X15560307Y8784840D01*
D02*
G37*
G36*
X14964885Y8042628D02*
X15044614Y7962900D01*
X15046198D01*
X15061505Y7925945D01*
X14955772Y7820213D01*
X14889287Y7886700D01*
X14833600D01*
Y7721600D01*
X14808200D01*
Y7886700D01*
X14769501D01*
X14752933Y7926700D01*
X14833432Y8007200D01*
X14876198D01*
X14913966Y8044968D01*
X14964885Y8042628D01*
D02*
G37*
G36*
X18249899Y11893549D02*
X18212946Y11878242D01*
X18191287Y11899900D01*
X18135600D01*
Y11734800D01*
Y11569700D01*
X18191287D01*
X18212946Y11591358D01*
X18249899Y11576051D01*
Y6324600D01*
X14643875D01*
X14626836Y6364600D01*
X14673102Y6476300D01*
Y6493600D01*
X14334097D01*
Y6476300D01*
X14380365Y6364600D01*
X14363324Y6324600D01*
X13779877D01*
X13762836Y6364600D01*
X13809103Y6476300D01*
Y6493600D01*
X13470097D01*
Y6476300D01*
X13516365Y6364600D01*
X13499326Y6324600D01*
X12534900D01*
Y12687300D01*
X13081947D01*
X13098337Y12647300D01*
X13056998Y12547500D01*
Y12522200D01*
X13246100D01*
Y12496800D01*
X13056998D01*
Y12471500D01*
X13094026Y12382107D01*
X13063657Y12350900D01*
X12962202D01*
X12884000Y12272698D01*
Y12162102D01*
X12914240Y12131863D01*
Y7446558D01*
X12944484Y7373542D01*
X13113942Y7204084D01*
X13186958Y7173840D01*
X14558691D01*
X14631708Y7204084D01*
X15320673Y7893048D01*
X15350916Y7966064D01*
Y8283384D01*
X15709732Y8642200D01*
X15752498D01*
X15830701Y8720402D01*
Y8824840D01*
X16021674D01*
X16038242Y8784840D01*
X15995500Y8742098D01*
Y8631502D01*
X16050485Y8576517D01*
X15890884Y8416916D01*
X15860640Y8343900D01*
Y7683500D01*
Y7659760D01*
X15516037D01*
X15473099Y7702700D01*
X15362502D01*
X15284300Y7624498D01*
Y7513902D01*
X15362502Y7435700D01*
X15473099D01*
X15490637Y7453240D01*
X15934142D01*
X16007158Y7483484D01*
X16012521Y7488847D01*
X16017883Y7483484D01*
X16090900Y7453240D01*
X16108501D01*
Y7409000D01*
X16152740D01*
Y6810936D01*
X16083099Y6741297D01*
Y6619103D01*
X16169502Y6532700D01*
X16291698D01*
X16357600Y6598603D01*
X16423503Y6532700D01*
X16545697D01*
X16611600Y6598603D01*
X16677502Y6532700D01*
X16799696D01*
X16813499Y6526982D01*
Y6501100D01*
X16979900D01*
Y6680200D01*
X17005299D01*
Y6501100D01*
X17145000D01*
Y6497513D01*
X17241713Y6400800D01*
X17297400D01*
Y6565900D01*
X17310100D01*
Y6578600D01*
X17475200D01*
Y6634287D01*
X17386046Y6723441D01*
X17378502Y6731287D01*
X17380505Y6770163D01*
X18009216Y7398873D01*
X18039461Y7471889D01*
Y11563465D01*
X18054514Y11569700D01*
X18110201D01*
Y11734800D01*
Y11899900D01*
X18054514D01*
X18039461Y11906135D01*
Y11972300D01*
X18009216Y12045316D01*
X17838615Y12215916D01*
X17765601Y12246160D01*
X17710100D01*
Y12315975D01*
X17676610Y12349466D01*
X17684413Y12388697D01*
X17684760Y12388840D01*
X17718999Y12471500D01*
Y12547500D01*
X17684760Y12630160D01*
X17643379Y12647300D01*
X17651337Y12687300D01*
X18249899D01*
Y11893549D01*
D02*
G37*
G36*
X13482903Y8426300D02*
X13569800D01*
Y8402902D01*
X13648003Y8324700D01*
X13699892D01*
X13708200Y8300919D01*
Y8295503D01*
X13711108Y8292595D01*
X13713152Y8286751D01*
X13708200Y8250100D01*
X13708200D01*
Y7955100D01*
X13857169D01*
X14036684Y7775584D01*
X14109700Y7745340D01*
X14402184D01*
X14418753Y7705340D01*
X14376401Y7662987D01*
Y7607300D01*
X14541499D01*
Y7581900D01*
X14376401D01*
Y7526213D01*
X14473112Y7429500D01*
X14474825D01*
X14496045Y7389500D01*
X14489856Y7380360D01*
X13229730D01*
X13120760Y7489330D01*
Y7550102D01*
X13157716Y7565409D01*
X13185625Y7537500D01*
X13306575D01*
X13392101Y7623025D01*
Y7743975D01*
X13325575Y7810500D01*
X13392101Y7877025D01*
Y7997975D01*
X13325575Y8064500D01*
X13392101Y8131025D01*
Y8251975D01*
X13325575Y8318500D01*
X13392101Y8385025D01*
Y8460534D01*
X13432100Y8477102D01*
X13482903Y8426300D01*
D02*
G37*
G36*
X17030701Y7377400D02*
X17092186D01*
X17131784Y7416999D01*
X17168739Y7401692D01*
Y7357972D01*
X17102228Y7291460D01*
X16882973D01*
X16867261Y7307172D01*
Y7397386D01*
X16907260Y7413954D01*
X16943814Y7377400D01*
X17005299D01*
Y7556500D01*
X17030701D01*
Y7377400D01*
D02*
G37*
%LPC*%
G36*
X15862863Y12337300D02*
X15742741D01*
X15657802Y12252361D01*
Y12193332D01*
X15446384Y11981914D01*
X15416141Y11908898D01*
Y11731437D01*
X15385899Y11701198D01*
Y11590602D01*
X15464102Y11512400D01*
X15574698D01*
X15652901Y11590602D01*
Y11701198D01*
X15622659Y11731437D01*
Y11866126D01*
X15803835Y12047300D01*
X15862863D01*
X15947803Y12132239D01*
Y12252361D01*
X15862863Y12337300D01*
D02*
G37*
G36*
X16306799Y9588500D02*
X16154401D01*
Y9436100D01*
X16210088D01*
X16306799Y9532813D01*
Y9588500D01*
D02*
G37*
G36*
X17010187Y8991600D02*
X16954500D01*
Y8839200D01*
X17106900D01*
Y8894887D01*
X17010187Y8991600D01*
D02*
G37*
G36*
X16929100D02*
X16873413D01*
X16776700Y8894887D01*
Y8839200D01*
X16929100D01*
Y8991600D01*
D02*
G37*
G36*
X17106900Y8813800D02*
X16954500D01*
Y8661400D01*
X17010187D01*
X17106900Y8758113D01*
Y8813800D01*
D02*
G37*
G36*
X16929100D02*
X16776700D01*
Y8758113D01*
X16873413Y8661400D01*
X16929100D01*
Y8813800D01*
D02*
G37*
G36*
X17043401Y7950200D02*
X16987714D01*
X16891000Y7853487D01*
Y7797800D01*
X17043401D01*
Y7950200D01*
D02*
G37*
G36*
X14516299Y7080542D02*
Y6899000D01*
X14673102D01*
Y6916300D01*
X14623456Y7036156D01*
X14516299Y7080542D01*
D02*
G37*
G36*
X14490900D02*
X14383743Y7036156D01*
X14334097Y6916300D01*
Y6899000D01*
X14490900D01*
Y7080542D01*
D02*
G37*
G36*
X13652299D02*
Y6899000D01*
X13809103D01*
Y6916300D01*
X13759457Y7036156D01*
X13652299Y7080542D01*
D02*
G37*
G36*
X13626900D02*
X13519743Y7036156D01*
X13470097Y6916300D01*
Y6899000D01*
X13626900D01*
Y7080542D01*
D02*
G37*
G36*
X14673102Y6873600D02*
X14334097D01*
Y6856300D01*
X14383743Y6736443D01*
X14432375Y6716300D01*
Y6676300D01*
X14383743Y6656156D01*
X14334097Y6536300D01*
Y6519000D01*
X14673102D01*
Y6536300D01*
X14623456Y6656156D01*
X14574826Y6676300D01*
Y6716300D01*
X14623456Y6736443D01*
X14673102Y6856300D01*
Y6873600D01*
D02*
G37*
G36*
X13809103D02*
X13470097D01*
Y6856300D01*
X13519743Y6736443D01*
X13568375Y6716300D01*
Y6676300D01*
X13519743Y6656156D01*
X13470097Y6536300D01*
Y6519000D01*
X13809103D01*
Y6536300D01*
X13759457Y6656156D01*
X13710826Y6676300D01*
Y6716300D01*
X13759457Y6736443D01*
X13809103Y6856300D01*
Y6873600D01*
D02*
G37*
G36*
X17475200Y6553200D02*
X17322800D01*
Y6400800D01*
X17378487D01*
X17475200Y6497513D01*
Y6553200D01*
D02*
G37*
%LPD*%
D10*
X13709804Y12573300D02*
D03*
Y12373300D02*
D03*
Y12173301D02*
D03*
Y11973301D02*
D03*
Y11773302D02*
D03*
Y11573302D02*
D03*
Y11373302D02*
D03*
Y11173303D02*
D03*
Y10973303D02*
D03*
X17079800D02*
D03*
Y11173303D02*
D03*
Y11373302D02*
D03*
Y11573302D02*
D03*
Y11773302D02*
D03*
Y11973301D02*
D03*
Y12173301D02*
D03*
Y12373300D02*
D03*
Y12573300D02*
D03*
D11*
X13894804Y10663304D02*
D03*
X14094804D02*
D03*
X14294804D02*
D03*
X14494804D02*
D03*
X14694803D02*
D03*
X14894803D02*
D03*
X15094803D02*
D03*
X15294801D02*
D03*
X15494801D02*
D03*
X15694801D02*
D03*
X15894801D02*
D03*
X16094801D02*
D03*
X16294800D02*
D03*
X16494800D02*
D03*
X16694798D02*
D03*
X16894798D02*
D03*
D12*
X15802802Y12192300D02*
D03*
X16457806Y11196297D02*
D03*
D13*
X16256000Y6762058D02*
Y7556500D01*
X16230600Y6680200D02*
X16250539Y6700138D01*
X16281400Y7747000D02*
X16389349Y7854950D01*
X16250539Y6756596D02*
X16256000Y6762058D01*
Y7556500D02*
X16281400Y7581900D01*
X16090900Y7556500D02*
X16256000D01*
X16250539Y6700138D02*
Y6756596D01*
X16281400Y7581900D02*
Y7747000D01*
X15963901Y7683500D02*
X16090900Y7556500D01*
X14109700Y7848600D02*
X14427501D01*
X13855701Y8102600D02*
Y8128000D01*
Y8356600D01*
Y8102600D02*
X14109700Y7848600D01*
X13827504Y8384796D02*
X13855701Y8356600D01*
X13778584Y8443620D02*
X13838133Y8384069D01*
X13827504Y8384796D02*
X13838133Y8384069D01*
X16603392Y10274300D02*
X16814799D01*
X14103349Y8362950D02*
X14503400Y8763000D01*
X14343762Y8122538D02*
X14363699Y8102600D01*
X14343762Y8122538D02*
Y8336662D01*
X14363699Y8356600D01*
X14383638Y8122538D02*
X14434438D01*
X14363699Y8102600D02*
X14383638Y8122538D01*
X14434438D02*
X14592300Y8280400D01*
X14122400Y8121650D02*
X14293851Y7950200D01*
X14448242D01*
X14541499Y8043458D01*
X15417799Y7569200D02*
X15430499Y7556500D01*
X15934142D01*
X15963901Y7586258D02*
Y7683500D01*
X15934142Y7556500D02*
X15963901Y7586258D01*
X17310100Y6705600D02*
X18034000Y7429500D01*
X17310100Y6565900D02*
Y6705600D01*
X18034000Y7429500D02*
Y11645900D01*
X17282800Y6946900D02*
X17845399Y7509500D01*
X16514359Y6946900D02*
X17282800D01*
X17754601Y7547110D02*
Y10401300D01*
X17266789Y7059300D02*
X17754601Y7547110D01*
X16881500Y6823100D02*
X17287410D01*
X17936200Y7471889D01*
Y11972300D01*
X16786807Y7059300D02*
X17266789D01*
X17845399Y7509500D02*
Y11666170D01*
X16992599Y6680200D02*
X17195799D01*
X17310100Y6565900D01*
X13703300Y8458200D02*
X13717880Y8443620D01*
X13778584D01*
X14541499Y8763000D02*
X14692000Y8913500D01*
X14503400Y8763000D02*
X14541499D01*
Y8043592D02*
X15426009Y8928100D01*
X17056100Y7764481D02*
Y7785100D01*
X17017999Y7556500D02*
Y7726381D01*
X17056100Y7764481D01*
X16764000Y7264400D02*
Y7556500D01*
Y7264400D02*
X16840199Y7188200D01*
X16598900Y7183708D02*
X16662399D01*
X16510001Y7272608D02*
X16598900Y7183708D01*
X16510001Y7272608D02*
Y7556500D01*
X16738600Y6680200D02*
X16881500Y6823100D01*
X16579849Y7854950D02*
X16840199Y8115300D01*
X16389349Y7854950D02*
X16579849D01*
X15963901Y7683500D02*
Y8343900D01*
X16484599Y6917142D02*
X16514359Y6946900D01*
X16484599Y6680200D02*
Y6917142D01*
X18034000Y11645900D02*
X18122900Y11734800D01*
X17765601Y12142900D02*
X17936200Y11972300D01*
X17622670Y11888900D02*
X17845399Y11666170D01*
X16662399Y7183708D02*
X16786807Y7059300D01*
X15247656Y7966064D02*
Y8326156D01*
X14558691Y7277100D02*
X15247656Y7966064D01*
X13186958Y7277100D02*
X14558691D01*
X14820900Y7721600D02*
X15138400Y8039100D01*
Y8102600D01*
X14693900Y7594600D02*
X14820900Y7721600D01*
X17296619Y11988019D02*
X17426300Y12117700D01*
Y12129450D01*
Y12142900D02*
X17765601D01*
X17098499Y12192000D02*
X17168500D01*
X15646400Y9601200D02*
X15722600D01*
X15951199Y9829800D01*
X15519400Y11645900D02*
Y11908898D01*
X15802802Y12192300D01*
X13777023Y10568704D02*
X13870206D01*
X13894804Y10593304D02*
Y10663304D01*
X13870206Y10568704D02*
X13894804Y10593304D01*
X13698518Y10490200D02*
X13777023Y10568704D01*
X13677901Y10490200D02*
X13698518D01*
X13779803Y12573300D02*
X13895204Y12457900D01*
X13894804Y10663304D02*
X13895204Y10663703D01*
X13709804Y12573300D02*
X13779803D01*
X13895204Y10663703D02*
Y12457900D01*
X13017500Y7446558D02*
Y12217400D01*
Y7446558D02*
X13186958Y7277100D01*
X14541499Y7594600D02*
X14693900D01*
X15247656Y8326156D02*
X15697200Y8775700D01*
X15426009Y8928100D02*
X16243300D01*
X16141701Y8648700D02*
X16184158Y8606242D01*
X15963901Y8343900D02*
X16184158Y8564158D01*
Y8606242D01*
X16458504Y11196994D02*
Y11467404D01*
X16459200Y11468100D01*
X16457806Y11196297D02*
X16458504Y11196994D01*
X15242592Y8913500D02*
X16603392Y10274300D01*
X14692000Y8913500D02*
X15242592D01*
X16894798Y10593304D02*
X17023303Y10464800D01*
X17043401D01*
X17221201Y8978115D02*
Y10610850D01*
X17145000Y7188200D02*
X17272000Y7315200D01*
Y8927315D01*
X17221201Y8978115D02*
X17272000Y8927315D01*
X16294450Y10401650D02*
Y10662954D01*
X16294099Y10401300D02*
X16294450Y10401650D01*
Y10662954D02*
X16294800Y10663304D01*
X16094801D02*
X16105550Y10652554D01*
Y10412050D02*
Y10652554D01*
Y10412050D02*
X16116299Y10401300D01*
X16519400Y10544300D02*
X16535400Y10528300D01*
Y10388600D02*
Y10528300D01*
X17426300Y11887200D02*
X17428000Y11888900D01*
X17622670D01*
X16840199Y7188200D02*
X17145000D01*
X17072461Y7818519D02*
X17106900Y7852958D01*
X16965300Y8115300D02*
X16978000Y8128000D01*
X16941800Y8826500D02*
X17106900Y8661400D01*
X16840199Y8115300D02*
X16965300D01*
X17106900Y7852958D02*
Y8661400D01*
X16922749Y8826500D02*
X16941800D01*
X16148050Y9601200D02*
X16922749Y8826500D01*
X16141701Y9601200D02*
X16148050D01*
X14528806Y7848606D02*
X14820900Y8140700D01*
X14541499Y8043458D02*
Y8043592D01*
X14427507Y7848606D02*
X14528806D01*
X14427501Y7848600D02*
X14427507Y7848606D01*
X16894798Y10593304D02*
Y10663304D01*
X16494800D02*
X16519400Y10638704D01*
Y10544300D02*
Y10638704D01*
X15870201Y10480621D02*
Y10638704D01*
X15849600Y10460019D02*
X15870201Y10480621D01*
X15849600Y10439400D02*
Y10460019D01*
X15870201Y10638704D02*
X15894801Y10663304D01*
X17009801Y12573300D02*
X17079800D01*
X16694798Y10663304D02*
Y12258299D01*
X17009801Y12573300D01*
X16494800Y10663304D02*
X16694798D01*
X15176500Y9055100D02*
Y9436100D01*
X15694801Y9954401D01*
Y10663304D01*
X15494801Y9995702D02*
Y10663304D01*
X14643100Y9144000D02*
X15494801Y9995702D01*
X15294801Y10037002D02*
Y10663304D01*
X13855701Y8597900D02*
X15294801Y10037002D01*
X13576300Y8597900D02*
X13855701D01*
X13538200Y8559800D02*
X13576300Y8597900D01*
X13474699Y8737600D02*
X13766800D01*
X15094803Y10065603D02*
Y10663304D01*
X13766800Y8737600D02*
X15094803Y10065603D01*
X13525500Y8991600D02*
X13741400D01*
X14894803Y10145003D02*
Y10663304D01*
X13741400Y8991600D02*
X14894803Y10145003D01*
X13512801Y9232900D02*
X13703300D01*
X14694803Y10224403D02*
Y10663304D01*
X13703300Y9232900D02*
X14694803Y10224403D01*
X13487399Y9474200D02*
X13652499D01*
X14494804Y10316504D01*
Y10663304D01*
X13474699Y9766300D02*
X13652499D01*
X14294804Y10408604D01*
Y10663304D01*
X13462000Y9982200D02*
X13483701D01*
X14094804Y10593304D01*
Y10663304D01*
X17081551Y12371550D02*
X17321049D01*
X17322800Y12369800D01*
X17079800Y12373300D02*
X17081551Y12371550D01*
X17079800Y12173301D02*
X17098499Y12192000D01*
X17411700Y11887200D02*
X17426300D01*
X17297803Y11773302D02*
X17411700Y11887200D01*
X17104401Y11348702D02*
X17252878D01*
X17294905Y11562725D02*
X17422701Y11434930D01*
X17273181Y11328400D02*
X17293800D01*
X17422701Y11180930D02*
Y11434930D01*
X17252878Y11348702D02*
X17273181Y11328400D01*
X17422701Y11180930D02*
X17437120Y11166511D01*
X17090376Y11562725D02*
X17294905D01*
X17079800Y11573302D02*
X17090376Y11562725D01*
X17437120Y11114128D02*
Y11166511D01*
Y11114128D02*
X17451700Y11099548D01*
X17079800Y11373302D02*
X17104401Y11348702D01*
X17168500Y10684169D02*
X17221201Y10631469D01*
X17079800Y10973303D02*
X17143900D01*
X17168500Y10948703D01*
Y10684169D02*
Y10948703D01*
X17221201Y10610850D02*
Y10631469D01*
X17297400Y10807700D02*
Y11025703D01*
X17079800Y11173303D02*
X17149800D01*
X17297400Y11025703D01*
X17079800Y11773302D02*
X17297803D01*
X17094518Y11988019D02*
X17296619D01*
X17079800Y11973301D02*
X17094518Y11988019D01*
X17079950Y12573150D02*
X17335350D01*
X17335500Y12573000D01*
X17079800Y12573300D02*
X17079950Y12573150D01*
X13462151D02*
X13709654D01*
X13462000Y12573000D02*
X13462151Y12573150D01*
X13709654D02*
X13709804Y12573300D01*
X13463750Y12371550D02*
X13708054D01*
X13462000Y12369800D02*
X13463750Y12371550D01*
X13708054D02*
X13709804Y12373300D01*
X13478050Y12169950D02*
X13706454D01*
X13709804Y12173301D01*
X13474699Y12166600D02*
X13478050Y12169950D01*
X13479649Y11968350D02*
X13704852D01*
X13709804Y11973301D01*
X13474699Y11963400D02*
X13479649Y11968350D01*
X13482619Y11747500D02*
X13508421Y11773302D01*
X13709804D01*
X13462000Y11747500D02*
X13482619D01*
X13561882Y11495380D02*
X13639804Y11573302D01*
X13489281Y11495380D02*
X13561882D01*
X13639804Y11573302D02*
X13709804D01*
X13474699Y11480800D02*
X13489281Y11495380D01*
X13480602Y11214100D02*
X13639804Y11373302D01*
X13474699Y11214100D02*
X13480602D01*
X13639804Y11373302D02*
X13709804D01*
X13489281Y11022779D02*
X13639804Y11173303D01*
X13474699Y10985500D02*
X13489281Y11000080D01*
X13639804Y11173303D02*
X13709804D01*
X13489281Y11000080D02*
Y11022779D01*
X13615204Y10877461D02*
Y10948703D01*
X13525500Y10787757D02*
X13615204Y10877461D01*
X13639804Y10973303D02*
X13709804D01*
X13615204Y10948703D02*
X13639804Y10973303D01*
X13525500Y10769600D02*
Y10787757D01*
D14*
X16230600Y6680200D02*
D03*
X16738600D02*
D03*
X16484599D02*
D03*
X17017999Y7556500D02*
D03*
X16510001D02*
D03*
X16764000D02*
D03*
X14363699Y8356600D02*
D03*
X14109700D02*
D03*
X13855701D02*
D03*
X14363699Y8102600D02*
D03*
X14109700D02*
D03*
D15*
X16992599Y6680200D02*
D03*
X16256000Y7556500D02*
D03*
X13855701Y8102600D02*
D03*
D16*
X14503600Y6506300D02*
D03*
X13639600D02*
D03*
X14503600Y6886300D02*
D03*
X13639600D02*
D03*
D17*
X17564101Y8445500D02*
D03*
Y8699500D02*
D03*
Y9715500D02*
D03*
Y10223500D02*
D03*
Y10985500D02*
D03*
Y12001500D02*
D03*
Y12255500D02*
D03*
Y11747500D02*
D03*
Y11493500D02*
D03*
Y11239500D02*
D03*
Y10731500D02*
D03*
Y10477500D02*
D03*
Y9969500D02*
D03*
Y9461500D02*
D03*
Y9207500D02*
D03*
Y8953500D02*
D03*
Y8191500D02*
D03*
Y7937500D02*
D03*
Y7683500D02*
D03*
X13246100Y8445500D02*
D03*
Y8699500D02*
D03*
Y9715500D02*
D03*
Y10223500D02*
D03*
Y10985500D02*
D03*
Y12001500D02*
D03*
Y12255500D02*
D03*
Y11747500D02*
D03*
Y11493500D02*
D03*
Y11239500D02*
D03*
Y10731500D02*
D03*
Y10477500D02*
D03*
Y9969500D02*
D03*
Y9461500D02*
D03*
Y9207500D02*
D03*
Y8953500D02*
D03*
Y8191500D02*
D03*
Y7937500D02*
D03*
Y7683500D02*
D03*
D18*
X17564101Y12509500D02*
D03*
X13246100D02*
D03*
D19*
X15417799Y7569200D02*
D03*
X13703300Y8458200D02*
D03*
X14592300Y8280400D02*
D03*
X17716499Y10414000D02*
D03*
X15113000Y8128000D02*
D03*
X14820900Y7721600D02*
D03*
X17426300Y12129450D02*
D03*
X17168500Y12192000D02*
D03*
X15646400Y9601200D02*
D03*
X15951199Y9829800D02*
D03*
X15519400Y11645900D02*
D03*
X13677901Y10490200D02*
D03*
X13017500Y12217400D02*
D03*
X14541499Y7594600D02*
D03*
X15697200Y8775700D02*
D03*
X16243300Y8928100D02*
D03*
X16128999Y8686800D02*
D03*
X16459200Y11468100D02*
D03*
X16802100Y10312400D02*
D03*
X18122900Y11734800D02*
D03*
X17310100Y6565900D02*
D03*
X17043401Y10464800D02*
D03*
X16294099Y10401300D02*
D03*
X16116299D02*
D03*
X16535400Y10388600D02*
D03*
X16978000Y8128000D02*
D03*
X16941800Y8826500D02*
D03*
X17056100Y7785100D02*
D03*
X16141701Y9601200D02*
D03*
X15189200Y9042400D02*
D03*
X14820900Y8140700D02*
D03*
X14643100Y9144000D02*
D03*
X13538200Y8559800D02*
D03*
X13474699Y8737600D02*
D03*
X13525500Y8991600D02*
D03*
X13512801Y9232900D02*
D03*
X13487399Y9474200D02*
D03*
X13474699Y9766300D02*
D03*
X13462000Y9982200D02*
D03*
X15849600Y10439400D02*
D03*
X17322800Y12369800D02*
D03*
X17426300Y11887200D02*
D03*
X17293800Y11328400D02*
D03*
X17451700Y11099548D02*
D03*
X17221201Y10610850D02*
D03*
X17297400Y10807700D02*
D03*
X17335500Y12573000D02*
D03*
X13525500Y10769600D02*
D03*
X13474699Y10985500D02*
D03*
Y11214100D02*
D03*
Y11480800D02*
D03*
X13462000Y11747500D02*
D03*
X13474699Y11963400D02*
D03*
Y12166600D02*
D03*
X13462000Y12369800D02*
D03*
Y12573000D02*
D03*
%TF.MD5,d0f5aa0a71c2d68acd7194a3770165e5*%
M02*
